<?xml version="1.0" encoding="utf-8"?>
<!-- Generator: Adobe Illustrator 16.0.4, SVG Export Plug-In . SVG Version: 6.00 Build 0)  -->
<!DOCTYPE svg PUBLIC "-//W3C//DTD SVG 1.1//EN" "http://www.w3.org/Graphics/SVG/1.1/DTD/svg11.dtd">
<svg version="1.1" id="Layer_1" xmlns="http://www.w3.org/2000/svg" xmlns:xlink="http://www.w3.org/1999/xlink" x="0px" y="0px"
	 width="95px" height="33.367px" viewBox="0 0 95 33.367" enable-background="new 0 0 95 33.367" xml:space="preserve">
<g>
	<g>
		<g>
			<path fill="#355F66" d="M38.062,33.367c-1.788,0-3.208-0.933-3.221-0.939l-0.172-0.114l0.206-0.013
				c0.021-0.002,2.186-0.217,4.684-6.352c1.543-3.793,1.424-4.076-0.037-7.528c-0.125-0.297-0.261-0.617-0.407-0.965
				c-4.935-11.82-7.059-12.72-7.08-12.727l-0.208-0.077l0.214-0.056c0.013-0.003,1.264-0.312,2.792-0.312
				c1.967,0,3.476,0.484,4.484,1.438c1.203,1.138,3.933,8.201,4.409,9.452c0.437-1.263,2.96-8.385,4.723-9.714
				c0.978-0.808,2.328-1.218,4.013-1.218c1.333,0,2.392,0.271,2.401,0.274l0.201,0.053l-0.191,0.078
				c-0.021,0.008-2.208,1.092-7.529,14.786l-0.109,0.287c-3.491,9.171-4.429,11.637-6.688,12.97
				C39.788,33.138,38.952,33.367,38.062,33.367z"/>
		</g>
	</g>
	<g>
		<g>
			<path fill="#355F66" d="M84.895,26.021c-5.967,0-10.295-4.578-10.295-10.886c0-3.054,1.059-5.838,2.981-7.842
				c1.896-1.976,4.499-3.067,7.326-3.07h0.014c5.751,0,10.087,4.691,10.087,10.912c0,6.299-4.248,10.877-10.101,10.886H84.895
				L84.895,26.021z M84.885,7.744c-1.134,0-2.059,0.353-2.746,1.048c-1.466,1.483-1.623,4.173-1.599,6.351
				c0.026,2.185,0.088,7.298,4.367,7.307c4.266,0,4.325-4.952,4.353-7.332c0.026-2.163-0.13-4.833-1.582-6.308
				c-0.689-0.701-1.623-1.061-2.771-1.064L84.885,7.744L84.885,7.744z"/>
		</g>
	</g>
	<g>
		<g>
			<path fill="#355F66" d="M17.061,26.044c-0.613,0-1.173-0.113-1.665-0.339c-1.968-0.9-1.911-3.516-1.905-6.246
				c0.001-0.327,0-0.621,0-0.948v-1.124c0-1.049,0-2.353,0-3.036c0-0.103,0.001-0.218,0.003-0.345
				c0.015-1.271,0.042-3.635-1.314-4.507c-0.582-0.373-1.205-0.562-1.853-0.562c-1.582,0-2.849,1.132-3.022,1.295
				c0,0.435,0.009,5.504,0,8.064c0.079,6.492,1.543,6.823,1.543,6.823l-0.166,0.095c-0.015,0.008-1.49,0.827-3.141,0.827
				c-0.632,0-1.214-0.119-1.731-0.353c-1.937-0.879-1.905-3.412-1.871-6.095c0.004-0.37,0.009-0.745,0.009-1.118
				c0-0.616,0.006-1.447,0.014-2.328c0.012-1.558,0.026-3.323,0.007-4.55C1.915,6.766,0.109,5.63,0.091,5.619L0,5.565l0.087-0.062
				c0.017-0.011,1.67-1.14,3.514-1.14c0.631,0,1.217,0.132,1.745,0.391C6.621,5.38,7.043,6.303,7.158,6.637
				c0.408-0.453,2.296-2.337,5.438-2.337h0.076h0.035c3.492,0,5.19,2.361,5.509,2.859c0.161-0.217,0.634-0.804,1.457-1.398
				c0.954-0.688,2.578-1.504,4.853-1.479c0.312,0.006,1.948,0.081,3.445,1.03c1.613,1.023,2.431,2.64,2.431,4.804v8.131
				c0,6.598,1.515,6.872,1.515,6.872l-0.154,0.09c-0.014,0.008-1.438,0.822-3.108,0.822c-0.617,0-1.196-0.109-1.724-0.327
				c-1.922-0.792-1.89-3.677-1.892-6.448c0-0.249,0.003-0.499,0.003-0.746V14.08c0-1.654,0-3.713-1.378-4.619
				C23.099,9.089,22.492,8.9,21.86,8.9c-1.566,0-2.832,1.163-3.004,1.329c0,0.441,0,5.906,0,8.02c0,6.598,1.525,6.881,1.525,6.881
				l-0.148,0.083C20.213,25.22,18.701,26.044,17.061,26.044z"/>
		</g>
	</g>
	<g>
		<g>
			<path fill="#355F66" d="M64.877,26.186c-3.197,0-5.418-1.356-6.718-2.495c-2.496-2.185-3.673-4.915-3.703-8.596
				c-0.024-3.021,1.106-5.912,3.104-7.93c1.906-1.926,4.438-2.946,7.315-2.95h0.117c4.448,0,6.161,2.187,6.688,3.127
				c0.861,1.53,0.211,2.907-0.759,3.54c-0.376,0.245-0.821,0.375-1.29,0.375c-1.061,0-2.046-0.645-2.508-1.642
				c-0.552-1.192-1.398-1.795-2.518-1.795c-0.045,0-0.09,0.001-0.135,0.002c-0.893,0.039-2.164,0.33-3.168,1.496
				c-0.973,1.131-1.457,2.812-1.438,4.997c0.024,3.027,1.434,6.565,5.313,7.417c0.578,0.127,1.168,0.191,1.75,0.191
				c3.106,0,5.191-1.831,5.213-1.85l0.123-0.111l-0.009,0.166c-0.001,0.016-0.092,1.438-0.812,2.752
				c-1.066,1.957-2.967,3.057-5.645,3.269C65.493,26.174,65.182,26.186,64.877,26.186z"/>
		</g>
	</g>
</g>
</svg>
